<svg width="318" height="198" viewBox="0 0 318 198" fill="none" xmlns="http://www.w3.org/2000/svg">
<path d="M3.4368 77.2721C-1.25333 59.4178 -1.2164 56.923 3.99982 39.2153C6.51764 30.6679 10.3209 22.131 17.2794 15.7495C45.0922 -9.75544 87.502 -1.76796 104.787 21.7718C117.758 39.4267 122.188 61.762 116.77 82.2273C120.074 77.8426 124.908 73.8911 130.857 73.2889C139.569 72.4014 147.324 79.2795 149.396 86.7598C151.467 94.2402 149.343 102.069 147.228 109.539C152.646 98.9312 165.321 91.1445 178.558 91.5037C191.795 91.8735 204.384 101.171 205.786 112.73C206.923 122.101 203.258 131.219 195.949 139.133C210.301 129.307 228.903 124.69 247.091 125.429C265.279 126.169 280.832 130.786 295.716 139.988C305.351 145.947 318.939 163.634 316.878 173.808C314.881 183.666 301.07 182.282 290.213 185.346C276.891 189.107 263.898 189.815 250.076 190.375C237.891 190.861 225.504 193.925 213.18 195.119C183.179 198.014 152.827 199.208 122.751 196.419C93.5894 193.714 63.1101 186.392 43.4244 167.332C23.8343 148.356 30.7502 95.6348 30.7502 95.6348" fill="#33E5C5"/>
</svg>
